# xmcd
#
# Track frame offsets: 
#        150
#        17352
#        35565
#        50255
#        64291
#        83461
#        94700
#        112466
#        130161
#        145963
#        165629
#
# Disc length: 2512 seconds
#
# Revision: 0
# Processed by: cddbd v1.4PL0 Copyright (c) Steve Scherf et al.
# Submitted via: ExactAudioCopy v0.95a3
#
DISCID=8f09ce0b
DTITLE=T. Graham Brown - Original Artist hit List - T. Graham Brown
DYEAR=2003
DGENRE=
TTITLE0=Water Into Wine
TTITLE1=Never In A Million Tears
TTITLE2=Happy Ever After
TTITLE3=Keep Me From Blowing Away
TTITLE4=Good Days Bad News
TTITLE5=Hide And Seek
TTITLE6=Memphis, Women, and Chicken
TTITLE7=Accept My Love
TTITLE8=A Better World For Love
TTITLE9=Livin' On Love
TTITLE10=How Do You Know
EXTD=
EXTT0=
EXTT1=
EXTT2=
EXTT3=
EXTT4=
EXTT5=
EXTT6=
EXTT7=
EXTT8=
EXTT9=
EXTT10=
PLAYORDER=
